<svg width="166" height="52" viewBox="0 0 166 52" fill="none" xmlns="http://www.w3.org/2000/svg">
<path d="M5.71032 42.2281C16.6093 56.9414 42.7082 55.2884 50.2569 35.3404C50.7975 33.9118 47.3968 35.4692 46.4539 36.6478C46.4289 36.6791 46.3726 35.1504 45.2029 35.3843C44.0333 35.6182 41.8315 38.1865 38.5289 40.2819C34.0525 43.1221 26.5132 42.5337 26.5132 42.5337C26.5132 42.5337 28.6226 41.6828 30.3802 39.7876C32.1378 37.8923 33.9768 34.2349 32.0127 29.1622C32.0127 29.1622 31.3746 37.816 21.5295 39.112C14.3551 40.0565 10.6445 31.4374 9.88763 27.7658C8.90033 20.2045 12.8275 14.7584 15.9058 12.4422C26.264 4.64853 38.9413 9.765 41.4014 17.5701C42.7775 21.936 46.2063 22.4593 48.0316 21.2918C52.6665 18.3269 48.1875 8.56817 38.4924 3.14109C26.6893 -3.46593 14.2045 1.82755 9.88763 5.57426C2.25037 11.1662 -5.6924 26.8348 5.71032 42.2281Z" fill="#A1ED33"/>
<path fill-rule="evenodd" clip-rule="evenodd" d="M26.1159 23.4309H30.1079C30.1446 23.4309 30.1784 23.4108 30.1959 23.3785L30.2554 23.2685C30.3069 23.1733 30.4431 23.1721 30.4963 23.2664L31.2378 24.5815C31.2927 24.6788 31.4344 24.6737 31.4821 24.5727L32.5108 22.3943C32.562 22.286 32.7175 22.2902 32.7627 22.4011L33.1475 23.3453C33.1686 23.3971 33.219 23.4309 33.2749 23.4309H37.9111C37.0668 25.1225 35.2175 27.1589 32.0127 29.1622C28.7406 27.1168 26.9374 25.1477 26.1159 23.4309Z" fill="#A1ED33"/>
<path d="M38.1739 22.7867C39.8182 18.1013 34.0464 15.6318 32.0127 19.4077C29.9791 15.6318 24.2041 18.1013 25.8485 22.7867H29.7243C29.7773 22.7867 29.8256 22.7563 29.8484 22.7085L30.259 21.851C30.3072 21.7502 30.4491 21.7459 30.5034 21.8435L31.238 23.1649C31.2925 23.2629 31.4351 23.258 31.4828 23.1565L32.6443 20.685C32.6968 20.5733 32.8586 20.5819 32.8989 20.6986L33.5882 22.694C33.6074 22.7495 33.6596 22.7867 33.7183 22.7867H38.1739Z" fill="#A1ED33"/>
<mask id="mask0_630_7061" style="mask-type:alpha" maskUnits="userSpaceOnUse" x="0" y="0" width="51" height="52">
<path d="M5.71091 42.2286C16.6099 56.9419 42.7088 55.2889 50.2575 35.3409C50.7981 33.9122 47.3974 35.4697 46.4545 36.6483C46.4295 36.6796 46.3732 35.1509 45.2035 35.3848C44.0339 35.6187 41.8321 38.187 38.5295 40.2824C34.0531 43.1226 26.5138 42.5342 26.5138 42.5342C26.5138 42.5342 28.6232 41.6833 30.3808 39.7881C32.1384 37.8928 33.9774 34.2354 32.0133 29.1627C32.0133 29.1627 31.3752 37.8164 21.5301 39.1125C14.3557 40.057 10.6451 31.4379 9.88822 27.7663C8.90091 20.205 12.8281 14.7588 15.9064 12.4427C26.2646 4.64902 38.9419 9.76549 41.402 17.5706C42.7781 21.9365 46.2069 22.4598 48.0322 21.2922C52.6671 18.3274 48.1881 8.56865 38.493 3.14158C26.6899 -3.46544 14.2051 1.82803 9.88822 5.57474C2.25096 11.1666 -5.69181 26.8352 5.71091 42.2286Z" fill="#A1ED33"/>
<path fill-rule="evenodd" clip-rule="evenodd" d="M26.1165 23.4314H30.1085C30.1452 23.4314 30.179 23.4113 30.1965 23.379L30.256 23.269C30.3075 23.1738 30.4437 23.1726 30.4969 23.2669L31.2384 24.582C31.2932 24.6793 31.435 24.6742 31.4827 24.5732L32.5114 22.3948C32.5625 22.2864 32.718 22.2907 32.7633 22.4016L33.1481 23.3458C33.1692 23.3976 33.2196 23.4314 33.2755 23.4314H37.9117C37.0674 25.123 35.2181 27.1594 32.0133 29.1627C28.7412 27.1173 26.938 25.1482 26.1165 23.4314Z" fill="#A1ED33"/>
<path d="M38.1744 22.7872C39.8188 18.1018 34.047 15.6323 32.0133 19.4082C29.9797 15.6323 24.2047 18.1018 25.8491 22.7872H29.7249C29.7779 22.7872 29.8262 22.7568 29.849 22.709L30.2596 21.8515C30.3078 21.7507 30.4497 21.7464 30.5039 21.844L31.2385 23.1654C31.293 23.2634 31.4356 23.2585 31.4834 23.157L32.6449 20.6855C32.6974 20.5737 32.8592 20.5824 32.8995 20.6991L33.5888 22.6945C33.608 22.75 33.6602 22.7872 33.7189 22.7872H38.1744Z" fill="#A1ED33"/>
</mask>
<g mask="url(#mask0_630_7061)">
<circle cx="23.5505" cy="18.0454" r="29.542" fill="url(#paint0_linear_630_7061)"/>
</g>
<mask id="mask1_630_7061" style="mask-type:alpha" maskUnits="userSpaceOnUse" x="0" y="0" width="51" height="52">
<path d="M5.71091 42.2286C16.6099 56.9419 42.7088 55.2889 50.2575 35.3409C50.7981 33.9122 47.3974 35.4697 46.4545 36.6483C46.4295 36.6796 46.3732 35.1509 45.2035 35.3848C44.0339 35.6187 41.8321 38.187 38.5295 40.2824C34.0531 43.1226 26.5138 42.5342 26.5138 42.5342C26.5138 42.5342 28.6232 41.6833 30.3808 39.7881C32.1384 37.8928 33.9774 34.2354 32.0133 29.1627C32.0133 29.1627 31.3752 37.8164 21.5301 39.1125C14.3557 40.057 10.6451 31.4379 9.88822 27.7663C8.90091 20.205 12.8281 14.7588 15.9064 12.4427C26.2646 4.64902 38.9419 9.76549 41.402 17.5706C42.7781 21.9365 46.2069 22.4598 48.0322 21.2922C52.6671 18.3274 48.1881 8.56865 38.493 3.14158C26.6899 -3.46544 14.2051 1.82803 9.88822 5.57474C2.25096 11.1666 -5.69181 26.8352 5.71091 42.2286Z" fill="#A1ED33"/>
<path fill-rule="evenodd" clip-rule="evenodd" d="M26.1165 23.4314H30.1085C30.1452 23.4314 30.179 23.4113 30.1965 23.379L30.256 23.269C30.3075 23.1738 30.4437 23.1726 30.4969 23.2669L31.2384 24.582C31.2932 24.6793 31.435 24.6742 31.4827 24.5732L32.5114 22.3948C32.5625 22.2864 32.718 22.2907 32.7633 22.4016L33.1481 23.3458C33.1692 23.3976 33.2196 23.4314 33.2755 23.4314H37.9117C37.0674 25.123 35.2181 27.1594 32.0133 29.1627C28.7412 27.1173 26.938 25.1482 26.1165 23.4314Z" fill="#A1ED33"/>
<path d="M38.1744 22.7872C39.8188 18.1018 34.047 15.6323 32.0133 19.4082C29.9797 15.6323 24.2047 18.1018 25.8491 22.7872H29.7249C29.7779 22.7872 29.8262 22.7568 29.849 22.709L30.2596 21.8515C30.3078 21.7507 30.4497 21.7464 30.5039 21.844L31.2385 23.1654C31.293 23.2634 31.4356 23.2585 31.4834 23.157L32.6449 20.6855C32.6974 20.5737 32.8592 20.5824 32.8995 20.6991L33.5888 22.6945C33.608 22.75 33.6602 22.7872 33.7189 22.7872H38.1744Z" fill="#A1ED33"/>
</mask>
<g mask="url(#mask1_630_7061)">
<path d="M48.0258 19.6209C-16.55 1.62008 31.6692 34.7649 27.566 34.9276C25.8584 41.6954 6.79961 42.815 3.24682 24.6007C0.698869 11.5379 13.6545 -2.52148 25.8834 -2.52148C38.1123 -2.52148 48.0258 7.39202 48.0258 19.6209Z" fill="url(#paint1_linear_630_7061)"/>
</g>
<mask id="mask2_630_7061" style="mask-type:alpha" maskUnits="userSpaceOnUse" x="0" y="0" width="51" height="52">
<path d="M5.71091 42.2286C16.6099 56.9419 42.7088 55.2889 50.2575 35.3409C50.7981 33.9122 47.3974 35.4697 46.4545 36.6483C46.4295 36.6796 46.3732 35.1509 45.2035 35.3848C44.0339 35.6187 41.8321 38.187 38.5295 40.2824C34.0531 43.1226 26.5138 42.5342 26.5138 42.5342C26.5138 42.5342 28.6232 41.6833 30.3808 39.7881C32.1384 37.8928 33.9774 34.2354 32.0133 29.1627C32.0133 29.1627 31.3752 37.8164 21.5301 39.1125C14.3557 40.057 10.6451 31.4379 9.88822 27.7663C8.90091 20.205 12.8281 14.7588 15.9064 12.4427C26.2646 4.64902 38.9419 9.76549 41.402 17.5706C42.7781 21.9365 46.2069 22.4598 48.0322 21.2922C52.6671 18.3274 48.1881 8.56866 38.493 3.14158C26.6899 -3.46544 14.2051 1.82803 9.88822 5.57474C2.25096 11.1666 -5.69181 26.8352 5.71091 42.2286Z" fill="#A1ED33"/>
<path fill-rule="evenodd" clip-rule="evenodd" d="M26.1165 23.4314H30.1085C30.1452 23.4314 30.179 23.4113 30.1965 23.379L30.256 23.269C30.3075 23.1738 30.4437 23.1726 30.4969 23.2669L31.2384 24.582C31.2932 24.6793 31.435 24.6742 31.4827 24.5732L32.5114 22.3948C32.5625 22.2864 32.718 22.2907 32.7633 22.4016L33.1481 23.3458C33.1692 23.3976 33.2196 23.4314 33.2755 23.4314H37.9117C37.0674 25.123 35.2181 27.1594 32.0133 29.1627C28.7412 27.1173 26.938 25.1482 26.1165 23.4314Z" fill="#A1ED33"/>
<path d="M38.1744 22.7872C39.8188 18.1018 34.047 15.6323 32.0133 19.4082C29.9797 15.6323 24.2047 18.1018 25.8491 22.7872H29.7249C29.7779 22.7872 29.8262 22.7568 29.849 22.709L30.2596 21.8515C30.3078 21.7507 30.4497 21.7464 30.5039 21.844L31.2385 23.1654C31.293 23.2634 31.4356 23.2585 31.4834 23.157L32.6449 20.6855C32.6974 20.5737 32.8592 20.5824 32.8995 20.6991L33.5888 22.6945C33.608 22.75 33.6602 22.7872 33.7189 22.7872H38.1744Z" fill="#A1ED33"/>
</mask>
<g mask="url(#mask2_630_7061)">
<path d="M52.9794 24.7072C52.9794 36.5976 44.4412 16.6258 32.5508 16.6258C20.6605 16.6258 9.92053 36.5976 9.92053 24.7072C9.92053 12.8168 19.5596 3.17773 31.45 3.17773C43.3404 3.17773 52.9794 12.8168 52.9794 24.7072Z" fill="url(#paint2_linear_630_7061)"/>
</g>
<path d="M80.5365 19.232H76.2196C76.0965 18.5241 75.8695 17.897 75.5386 17.3506C75.2078 16.7966 74.7961 16.3272 74.3036 15.9424C73.8111 15.5577 73.2494 15.2691 72.6184 15.0768C71.9951 14.8767 71.3218 14.7767 70.5985 14.7767C69.3135 14.7767 68.1746 15.0999 67.182 15.7462C66.1893 16.3849 65.4121 17.3237 64.8504 18.5626C64.2887 19.7937 64.0078 21.2981 64.0078 23.0756C64.0078 24.8839 64.2887 26.4075 64.8504 27.6464C65.4198 28.8776 66.197 29.8087 67.182 30.4397C68.1746 31.063 69.3096 31.3746 70.587 31.3746C71.2949 31.3746 71.9567 31.2823 72.5723 31.0976C73.1955 30.9052 73.7534 30.6243 74.2459 30.255C74.7461 29.8856 75.1654 29.4316 75.504 28.893C75.8503 28.3543 76.0888 27.7387 76.2196 27.0462L80.5365 27.0693C80.3749 28.1927 80.0248 29.247 79.4861 30.2319C78.9552 31.2169 78.2588 32.0864 77.397 32.8405C76.5351 33.5869 75.5271 34.1717 74.3729 34.5949C73.2186 35.0104 71.9374 35.2182 70.5293 35.2182C68.4516 35.2182 66.5972 34.7373 64.9658 33.7754C63.3345 32.8135 62.0495 31.4246 61.1107 29.6086C60.1719 27.7926 59.7025 25.615 59.7025 23.0756C59.7025 20.5286 60.1757 18.351 61.1222 16.5426C62.0687 14.7266 63.3576 13.3377 64.9889 12.3759C66.6202 11.414 68.467 10.9331 70.5293 10.9331C71.8451 10.9331 73.0686 11.1177 74.1997 11.4871C75.3309 11.8564 76.3389 12.3989 77.2238 13.1146C78.1087 13.8225 78.8359 14.692 79.4053 15.7231C79.9825 16.7466 80.3595 17.9162 80.5365 19.232ZM88.4 35.2528C87.2765 35.2528 86.2646 35.0528 85.3643 34.6526C84.4717 34.2448 83.7638 33.6446 83.2405 32.852C82.725 32.0594 82.4672 31.0822 82.4672 29.9203C82.4672 28.9199 82.6519 28.0927 83.0212 27.4386C83.3906 26.7846 83.8946 26.2613 84.5333 25.8689C85.1719 25.4764 85.8914 25.1802 86.6917 24.9801C87.4997 24.7724 88.3346 24.6223 89.1964 24.53C90.2352 24.4222 91.0778 24.3261 91.7242 24.2414C92.3705 24.1491 92.8399 24.0106 93.1323 23.8259C93.4324 23.6335 93.5825 23.3373 93.5825 22.9371V22.8679C93.5825 21.9983 93.3247 21.325 92.8091 20.848C92.2936 20.3709 91.551 20.1323 90.5815 20.1323C89.558 20.1323 88.7462 20.3555 88.146 20.8018C87.5535 21.2481 87.1534 21.7752 86.9456 22.3831L83.0443 21.8291C83.3521 20.7518 83.86 19.8515 84.5679 19.1281C85.2758 18.3971 86.1415 17.8508 87.1649 17.4891C88.1884 17.1198 89.3195 16.9351 90.5584 16.9351C91.4125 16.9351 92.2628 17.0351 93.1092 17.2352C93.9557 17.4353 94.729 17.7661 95.4293 18.2278C96.1295 18.6818 96.6912 19.3013 97.1145 20.0862C97.5454 20.871 97.7608 21.8521 97.7608 23.0295V34.895H93.7441V32.4596H93.6056C93.3516 32.9521 92.9938 33.4137 92.5321 33.8447C92.0781 34.2679 91.5049 34.6103 90.8123 34.8719C90.1275 35.1259 89.3234 35.2528 88.4 35.2528ZM89.4849 32.1826C90.3237 32.1826 91.0509 32.0171 91.6665 31.6862C92.282 31.3477 92.7553 30.9014 93.0862 30.3473C93.4247 29.7933 93.594 29.1892 93.594 28.5352V26.446C93.4632 26.5537 93.2401 26.6538 92.9246 26.7461C92.6168 26.8384 92.2705 26.9192 91.8858 26.9885C91.501 27.0577 91.1201 27.1193 90.7431 27.1732C90.366 27.227 90.039 27.2732 89.762 27.3117C89.1387 27.3963 88.5808 27.5348 88.0883 27.7272C87.5958 27.9196 87.2072 28.1889 86.9225 28.5352C86.6378 28.8737 86.4955 29.3124 86.4955 29.851C86.4955 30.6205 86.7763 31.2015 87.3381 31.5939C87.8998 31.9863 88.6154 32.1826 89.4849 32.1826ZM108.836 35.2413C107.058 35.2413 105.523 34.8719 104.231 34.1332C102.946 33.3868 101.957 32.3326 101.264 30.9706C100.572 29.6009 100.225 27.9888 100.225 26.1344C100.225 24.3107 100.572 22.7101 101.264 21.3327C101.964 19.9476 102.942 18.8704 104.196 18.1009C105.45 17.3237 106.924 16.9351 108.617 16.9351C109.709 16.9351 110.74 17.1121 111.71 17.466C112.687 17.8123 113.549 18.351 114.296 19.082C115.05 19.813 115.642 20.7441 116.073 21.8752C116.504 22.9987 116.719 24.3376 116.719 25.892V27.1732H102.188V24.3568H112.714C112.707 23.5566 112.533 22.8448 112.195 22.2215C111.856 21.5905 111.383 21.0942 110.775 20.7325C110.175 20.3709 109.475 20.19 108.674 20.19C107.82 20.19 107.07 20.3978 106.424 20.8133C105.777 21.2212 105.273 21.7598 104.912 22.4293C104.558 23.091 104.377 23.8182 104.369 24.6108V27.0693C104.369 28.1004 104.558 28.9853 104.935 29.724C105.312 30.4551 105.839 31.0168 106.516 31.4092C107.193 31.794 107.986 31.9863 108.894 31.9863C109.502 31.9863 110.052 31.9017 110.544 31.7324C111.037 31.5554 111.464 31.2976 111.825 30.9591C112.187 30.6205 112.46 30.2011 112.645 29.701L116.546 30.1396C116.3 31.1707 115.831 32.071 115.138 32.8405C114.453 33.6023 113.576 34.1948 112.506 34.618C111.437 35.0335 110.213 35.2413 108.836 35.2413ZM123.457 11.2562V34.895H119.279V11.2562H123.457ZM131.881 35.2528C130.757 35.2528 129.745 35.0528 128.845 34.6526C127.953 34.2448 127.245 33.6446 126.721 32.852C126.206 32.0594 125.948 31.0822 125.948 29.9203C125.948 28.9199 126.133 28.0927 126.502 27.4386C126.871 26.7846 127.375 26.2613 128.014 25.8689C128.653 25.4764 129.372 25.1802 130.172 24.9801C130.98 24.7724 131.815 24.6223 132.677 24.53C133.716 24.4222 134.559 24.3261 135.205 24.2414C135.851 24.1491 136.321 24.0106 136.613 23.8259C136.913 23.6335 137.063 23.3373 137.063 22.9371V22.8679C137.063 21.9983 136.806 21.325 136.29 20.848C135.774 20.3709 135.032 20.1323 134.062 20.1323C133.039 20.1323 132.227 20.3555 131.627 20.8018C131.034 21.2481 130.634 21.7752 130.426 22.3831L126.525 21.8291C126.833 20.7518 127.341 19.8515 128.049 19.1281C128.757 18.3971 129.622 17.8508 130.646 17.4891C131.669 17.1198 132.8 16.9351 134.039 16.9351C134.893 16.9351 135.744 17.0351 136.59 17.2352C137.436 17.4353 138.21 17.7661 138.91 18.2278C139.61 18.6818 140.172 19.3013 140.595 20.0862C141.026 20.871 141.242 21.8521 141.242 23.0295V34.895H137.225V32.4596H137.086C136.832 32.9521 136.475 33.4137 136.013 33.8447C135.559 34.2679 134.986 34.6103 134.293 34.8719C133.608 35.1259 132.804 35.2528 131.881 35.2528ZM132.966 32.1826C133.804 32.1826 134.532 32.0171 135.147 31.6862C135.763 31.3477 136.236 30.9014 136.567 30.3473C136.906 29.7933 137.075 29.1892 137.075 28.5352V26.446C136.944 26.5537 136.721 26.6538 136.405 26.7461C136.098 26.8384 135.751 26.9192 135.367 26.9885C134.982 27.0577 134.601 27.1193 134.224 27.1732C133.847 27.227 133.52 27.2732 133.243 27.3117C132.619 27.3963 132.062 27.5348 131.569 27.7272C131.077 27.9196 130.688 28.1889 130.403 28.5352C130.119 28.8737 129.976 29.3124 129.976 29.851C129.976 30.6205 130.257 31.2015 130.819 31.5939C131.381 31.9863 132.096 32.1826 132.966 32.1826ZM148.646 24.5069V34.895H144.468V17.1659H148.462V20.1785H148.669C149.077 19.1859 149.727 18.3971 150.62 17.8123C151.52 17.2275 152.632 16.9351 153.956 16.9351C155.179 16.9351 156.245 17.1967 157.153 17.72C158.069 18.2432 158.777 19.0012 159.277 19.9938C159.785 20.9865 160.035 22.1907 160.027 23.6066V34.895H155.849V24.253C155.849 23.0679 155.541 22.1407 154.925 21.4712C154.317 20.8018 153.475 20.4671 152.398 20.4671C151.667 20.4671 151.016 20.6286 150.447 20.9518C149.885 21.2673 149.443 21.7252 149.12 22.3254C148.804 22.9256 148.646 23.6527 148.646 24.5069Z" fill="#F8F9FA"/>
<path d="M89.4895 51.687L93.2054 43.4815H94.3659L98.0936 51.687H96.8628L93.5454 44.138H94.0143L90.6969 51.687H89.4895ZM91.072 49.6356L91.3885 48.6979H96.007L96.347 49.6356H91.072ZM99.0832 51.687V43.4815H100.255V51.687H99.0832ZM107.36 51.7573C106.735 51.7573 106.251 51.5893 105.907 51.2533C105.563 50.9173 105.391 50.4366 105.391 49.8115V44.1145H106.516V49.7646C106.516 50.1006 106.599 50.3585 106.763 50.5382C106.935 50.718 107.177 50.8079 107.489 50.8079C107.841 50.8079 108.134 50.7102 108.369 50.5148L108.72 51.3236C108.548 51.4721 108.341 51.5815 108.099 51.6518C107.865 51.7222 107.618 51.7573 107.36 51.7573ZM104.336 46.4003V45.4743H108.298V46.4003H104.336ZM113.164 45.4157C113.672 45.4157 114.117 45.5133 114.5 45.7087C114.891 45.9041 115.196 46.201 115.414 46.5996C115.633 46.9982 115.743 47.5022 115.743 48.1118V51.687H114.617V48.2407C114.617 47.639 114.469 47.1857 114.172 46.8809C113.883 46.5762 113.472 46.4238 112.941 46.4238C112.542 46.4238 112.195 46.5019 111.898 46.6582C111.601 46.8145 111.37 47.045 111.206 47.3498C111.05 47.6546 110.972 48.0336 110.972 48.4869V51.687H109.846V42.9892H110.972V47.1505L110.749 46.7051C110.952 46.2987 111.265 45.9822 111.687 45.7556C112.109 45.529 112.601 45.4157 113.164 45.4157ZM121.447 51.687V50.3741L121.389 50.128V47.889C121.389 47.4123 121.248 47.045 120.967 46.7872C120.693 46.5215 120.279 46.3886 119.724 46.3886C119.357 46.3886 118.997 46.4511 118.646 46.5762C118.294 46.6934 117.997 46.8536 117.755 47.0568L117.286 46.2128C117.606 45.9549 117.989 45.7595 118.435 45.6267C118.888 45.486 119.361 45.4157 119.853 45.4157C120.705 45.4157 121.361 45.6228 121.822 46.0369C122.283 46.4511 122.514 47.0841 122.514 47.9359V51.687H121.447ZM119.408 51.7573C118.947 51.7573 118.54 51.6792 118.189 51.5229C117.845 51.3666 117.579 51.1517 117.391 50.8782C117.204 50.5969 117.11 50.2804 117.11 49.9287C117.11 49.5927 117.188 49.2879 117.345 49.0144C117.509 48.7408 117.77 48.522 118.13 48.3579C118.497 48.1938 118.99 48.1118 119.607 48.1118H121.576V48.9206H119.654C119.091 48.9206 118.712 49.0144 118.517 49.2019C118.321 49.3895 118.224 49.6161 118.224 49.8818C118.224 50.1866 118.345 50.4327 118.587 50.6203C118.829 50.8 119.165 50.8899 119.595 50.8899C120.017 50.8899 120.384 50.7961 120.697 50.6086C121.017 50.421 121.248 50.1475 121.389 49.788L121.611 50.5617C121.463 50.929 121.201 51.222 120.826 51.4408C120.451 51.6518 119.978 51.7573 119.408 51.7573ZM126.496 51.7573C125.87 51.7573 125.386 51.5893 125.042 51.2533C124.698 50.9173 124.526 50.4366 124.526 49.8115V44.1145H125.652V49.7646C125.652 50.1006 125.734 50.3585 125.898 50.5382C126.07 50.718 126.312 50.8079 126.624 50.8079C126.976 50.8079 127.269 50.7102 127.504 50.5148L127.855 51.3236C127.683 51.4721 127.476 51.5815 127.234 51.6518C127 51.7222 126.753 51.7573 126.496 51.7573ZM123.471 46.4003V45.4743H127.433V46.4003H123.471ZM134.603 51.7573C133.97 51.7573 133.403 51.6206 132.903 51.3471C132.411 51.0736 132.024 50.6984 131.743 50.2217C131.461 49.745 131.321 49.198 131.321 48.5806C131.321 47.9633 131.461 47.4162 131.743 46.9395C132.024 46.4628 132.411 46.0916 132.903 45.8259C133.403 45.5524 133.97 45.4157 134.603 45.4157C135.165 45.4157 135.666 45.529 136.103 45.7556C136.549 45.9744 136.892 46.3026 137.135 46.7403L136.279 47.2912C136.076 46.9864 135.826 46.7637 135.529 46.623C135.24 46.4746 134.927 46.4003 134.591 46.4003C134.185 46.4003 133.821 46.4902 133.501 46.6699C133.18 46.8497 132.926 47.1037 132.739 47.4319C132.551 47.7523 132.458 48.1352 132.458 48.5806C132.458 49.0261 132.551 49.4129 132.739 49.7411C132.926 50.0694 133.18 50.3233 133.501 50.5031C133.821 50.6828 134.185 50.7727 134.591 50.7727C134.927 50.7727 135.24 50.7024 135.529 50.5617C135.826 50.4132 136.076 50.1866 136.279 49.8818L137.135 50.421C136.892 50.8508 136.549 51.183 136.103 51.4174C135.666 51.644 135.165 51.7573 134.603 51.7573ZM142.214 51.687V50.3741L142.155 50.128V47.889C142.155 47.4123 142.015 47.045 141.733 46.7872C141.46 46.5215 141.045 46.3886 140.491 46.3886C140.123 46.3886 139.764 46.4511 139.412 46.5762C139.061 46.6934 138.764 46.8536 138.521 47.0568L138.052 46.2128C138.373 45.9549 138.756 45.7595 139.201 45.6267C139.654 45.486 140.127 45.4157 140.62 45.4157C141.471 45.4157 142.128 45.6228 142.589 46.0369C143.05 46.4511 143.281 47.0841 143.281 47.9359V51.687H142.214ZM140.174 51.7573C139.713 51.7573 139.307 51.6792 138.955 51.5229C138.611 51.3666 138.345 51.1517 138.158 50.8782C137.97 50.5969 137.877 50.2804 137.877 49.9287C137.877 49.5927 137.955 49.2879 138.111 49.0144C138.275 48.7408 138.537 48.522 138.896 48.3579C139.264 48.1938 139.756 48.1118 140.373 48.1118H142.343V48.9206H140.42C139.858 48.9206 139.479 49.0144 139.283 49.2019C139.088 49.3895 138.99 49.6161 138.99 49.8818C138.99 50.1866 139.111 50.4327 139.354 50.6203C139.596 50.8 139.932 50.8899 140.362 50.8899C140.784 50.8899 141.151 50.7961 141.464 50.6086C141.784 50.421 142.015 50.1475 142.155 49.788L142.378 50.5617C142.229 50.929 141.968 51.222 141.593 51.4408C141.217 51.6518 140.745 51.7573 140.174 51.7573ZM145.129 51.687V45.4743H146.207V47.1623L146.102 46.7403C146.273 46.3105 146.563 45.9822 146.969 45.7556C147.375 45.529 147.875 45.4157 148.469 45.4157V46.5058C148.423 46.498 148.376 46.4941 148.329 46.4941C148.29 46.4941 148.251 46.4941 148.212 46.4941C147.61 46.4941 147.133 46.6738 146.781 47.0333C146.43 47.3928 146.254 47.9125 146.254 48.5924V51.687H145.129ZM152.331 51.7573C151.667 51.7573 151.081 51.6206 150.573 51.3471C150.073 51.0736 149.682 50.6984 149.401 50.2217C149.127 49.745 148.99 49.198 148.99 48.5806C148.99 47.9633 149.123 47.4162 149.389 46.9395C149.662 46.4628 150.034 46.0916 150.502 45.8259C150.979 45.5524 151.514 45.4157 152.108 45.4157C152.71 45.4157 153.242 45.5485 153.703 45.8142C154.164 46.0799 154.523 46.455 154.781 46.9395C155.047 47.4162 155.18 47.975 155.18 48.6158C155.18 48.6627 155.176 48.7174 155.168 48.7799C155.168 48.8424 155.164 48.901 155.156 48.9558H149.869V48.1469H154.57L154.113 48.4283C154.121 48.0297 154.039 47.6741 153.867 47.3615C153.695 47.0489 153.456 46.8067 153.152 46.6348C152.855 46.455 152.507 46.3652 152.108 46.3652C151.718 46.3652 151.37 46.455 151.065 46.6348C150.76 46.8067 150.522 47.0529 150.35 47.3733C150.178 47.6859 150.092 48.0453 150.092 48.4517V48.6393C150.092 49.0534 150.186 49.4246 150.374 49.7529C150.569 50.0733 150.838 50.3233 151.182 50.5031C151.526 50.6828 151.921 50.7727 152.366 50.7727C152.734 50.7727 153.066 50.7102 153.363 50.5851C153.667 50.4601 153.933 50.2725 154.16 50.0225L154.781 50.7492C154.5 51.0775 154.148 51.3275 153.726 51.4995C153.312 51.6714 152.847 51.7573 152.331 51.7573ZM158.29 51.7573C157.774 51.7573 157.281 51.687 156.813 51.5463C156.351 51.4057 155.988 51.2338 155.722 51.0306L156.191 50.1397C156.457 50.3194 156.785 50.4718 157.176 50.5969C157.567 50.7219 157.965 50.7844 158.372 50.7844C158.895 50.7844 159.27 50.7102 159.497 50.5617C159.731 50.4132 159.849 50.2061 159.849 49.9404C159.849 49.745 159.778 49.5927 159.638 49.4832C159.497 49.3738 159.309 49.2918 159.075 49.2371C158.848 49.1824 158.594 49.1355 158.313 49.0964C158.032 49.0495 157.75 48.9948 157.469 48.9323C157.188 48.862 156.93 48.7682 156.695 48.651C156.461 48.5259 156.273 48.3579 156.133 48.1469C155.992 47.9281 155.922 47.639 155.922 47.2795C155.922 46.9044 156.027 46.5762 156.238 46.2948C156.449 46.0135 156.746 45.7986 157.129 45.6501C157.52 45.4938 157.981 45.4157 158.512 45.4157C158.919 45.4157 159.329 45.4665 159.743 45.5681C160.165 45.6618 160.509 45.7986 160.775 45.9783L160.294 46.8692C160.013 46.6817 159.72 46.5527 159.415 46.4824C159.11 46.412 158.805 46.3769 158.501 46.3769C158.008 46.3769 157.641 46.4589 157.399 46.623C157.156 46.7793 157.035 46.9825 157.035 47.2326C157.035 47.4436 157.106 47.6077 157.246 47.7249C157.395 47.8343 157.582 47.9203 157.809 47.9828C158.043 48.0453 158.301 48.1 158.583 48.1469C158.864 48.186 159.145 48.2407 159.427 48.311C159.708 48.3736 159.962 48.4634 160.189 48.5806C160.423 48.6979 160.611 48.862 160.751 49.073C160.9 49.284 160.974 49.5653 160.974 49.917C160.974 50.2921 160.865 50.6164 160.646 50.8899C160.427 51.1634 160.118 51.3783 159.72 51.5346C159.321 51.6831 158.844 51.7573 158.29 51.7573Z" fill="#F8F9FA"/>
<defs>
<linearGradient id="paint0_linear_630_7061" x1="7.75058" y1="43.1152" x2="46.6124" y2="37.7359" gradientUnits="userSpaceOnUse">
<stop stop-color="#71B60E"/>
<stop offset="1" stop-color="#A1ED33"/>
</linearGradient>
<linearGradient id="paint1_linear_630_7061" x1="13.8677" y1="-2.52693" x2="23.5919" y2="22.7641" gradientUnits="userSpaceOnUse">
<stop stop-color="#60F3E3"/>
<stop offset="0.998389" stop-color="#1D5751"/>
</linearGradient>
<linearGradient id="paint2_linear_630_7061" x1="47.7878" y1="16.6321" x2="21.0519" y2="21.6497" gradientUnits="userSpaceOnUse">
<stop stop-color="#22D9C5"/>
<stop offset="0.998389" stop-color="#1E615B"/>
</linearGradient>
</defs>
</svg>
