<svg width="102" height="32" viewBox="0 0 102 32" fill="none" xmlns="http://www.w3.org/2000/svg">
<path d="M3.51537 25.9965C10.225 35.0544 26.2921 34.0367 30.9392 21.7563C31.272 20.8768 29.1784 21.8356 28.598 22.5612C28.5826 22.5804 28.5479 21.6393 27.8279 21.7833C27.1078 21.9274 25.7524 23.5084 23.7192 24.7984C20.9634 26.5469 16.3221 26.1846 16.3221 26.1846C16.3221 26.1846 17.6206 25.6608 18.7027 24.4941C19.7847 23.3273 20.9168 21.0757 19.7077 17.9529C19.7077 17.9529 19.3148 23.2803 13.254 24.0782C8.83728 24.6597 6.55294 19.3536 6.08701 17.0932C5.4792 12.4383 7.89686 9.08556 9.79195 7.65967C16.1687 2.86174 23.9731 6.01154 25.4876 10.8165C26.3347 13.5043 28.4456 13.8264 29.5693 13.1077C32.4226 11.2824 29.6652 5.27475 23.6967 1.93372C16.4305 -2.1337 8.74458 1.12508 6.08701 3.43163C1.38535 6.87413 -3.50439 16.52 3.51537 25.9965Z" fill="#A1ED33"/>
<path fill-rule="evenodd" clip-rule="evenodd" d="M16.0775 14.4246H18.535C18.5577 14.4246 18.5785 14.4122 18.5892 14.3923L18.6259 14.3246C18.6576 14.266 18.7414 14.2652 18.7742 14.3233L19.2306 15.1329C19.2644 15.1928 19.3517 15.1896 19.381 15.1275L20.0143 13.7864C20.0458 13.7197 20.1415 13.7223 20.1694 13.7906L20.4063 14.3719C20.4193 14.4037 20.4503 14.4246 20.4847 14.4246H23.3389C22.8191 15.4659 21.6806 16.7196 19.7077 17.9529C17.6933 16.6937 16.5832 15.4815 16.0775 14.4246Z" fill="#A1ED33"/>
<path d="M23.5006 14.028C24.5129 11.1436 20.9597 9.62328 19.7077 11.9478C18.4557 9.62328 14.9005 11.1436 15.9129 14.028H18.2989C18.3315 14.028 18.3612 14.0093 18.3753 13.9798L18.628 13.4519C18.6577 13.3899 18.7451 13.3872 18.7785 13.4473L19.2307 14.2608C19.2643 14.3211 19.3521 14.3181 19.3814 14.2557L20.0965 12.7341C20.1289 12.6653 20.2284 12.6707 20.2533 12.7425L20.6776 13.9709C20.6894 14.0051 20.7216 14.028 20.7577 14.028H23.5006Z" fill="#A1ED33"/>
<mask id="mask0_630_6187" style="mask-type:alpha" maskUnits="userSpaceOnUse" x="0" y="0" width="31" height="32">
<path d="M3.51596 25.9965C10.2256 35.0544 26.2927 34.0367 30.9398 21.7563C31.2726 20.8768 29.179 21.8356 28.5986 22.5612C28.5832 22.5804 28.5485 21.6393 27.8285 21.7833C27.1084 21.9274 25.753 23.5084 23.7198 24.7984C20.964 26.5469 16.3227 26.1846 16.3227 26.1846C16.3227 26.1846 17.6212 25.6608 18.7033 24.4941C19.7853 23.3273 20.9174 21.0757 19.7083 17.9529C19.7083 17.9529 19.3154 23.2803 13.2546 24.0782C8.83787 24.6597 6.55354 19.3536 6.0876 17.0932C5.4798 12.4383 7.89746 9.08556 9.79255 7.65967C16.1692 2.86174 23.9737 6.01154 25.4881 10.8165C26.3353 13.5043 28.4462 13.8264 29.5699 13.1077C32.4232 11.2824 29.6658 5.27475 23.6973 1.93372C16.4311 -2.1337 8.74517 1.12508 6.0876 3.43163C1.38594 6.87413 -3.5038 16.52 3.51596 25.9965Z" fill="#A1ED33"/>
<path fill-rule="evenodd" clip-rule="evenodd" d="M16.0781 14.4246H18.5356C18.5583 14.4246 18.5791 14.4122 18.5898 14.3923L18.6264 14.3246C18.6582 14.266 18.742 14.2652 18.7748 14.3233L19.2312 15.1329C19.265 15.1928 19.3523 15.1896 19.3816 15.1275L20.0149 13.7864C20.0464 13.7197 20.1421 13.7223 20.17 13.7906L20.4069 14.3719C20.4199 14.4037 20.4509 14.4246 20.4853 14.4246H23.3395C22.8197 15.4659 21.6812 16.7196 19.7083 17.9529C17.6939 16.6937 16.5838 15.4815 16.0781 14.4246Z" fill="#A1ED33"/>
<path d="M23.5012 14.028C24.5135 11.1436 20.9603 9.62328 19.7083 11.9478C18.4563 9.62328 14.9011 11.1436 15.9134 14.028H18.2995C18.3321 14.028 18.3618 14.0093 18.3759 13.9798L18.6286 13.4519C18.6583 13.3899 18.7457 13.3872 18.7791 13.4473L19.2313 14.2608C19.2649 14.3211 19.3527 14.3181 19.382 14.2557L20.0971 12.7341C20.1294 12.6653 20.229 12.6707 20.2539 12.7425L20.6782 13.9709C20.69 14.0051 20.7222 14.028 20.7583 14.028H23.5012Z" fill="#A1ED33"/>
</mask>
<g mask="url(#mask0_630_6187)">
<circle cx="14.4989" cy="11.1091" r="18.1867" fill="url(#paint0_linear_630_6187)"/>
</g>
<mask id="mask1_630_6187" style="mask-type:alpha" maskUnits="userSpaceOnUse" x="0" y="0" width="31" height="32">
<path d="M3.51596 25.9965C10.2256 35.0544 26.2927 34.0367 30.9398 21.7563C31.2726 20.8768 29.179 21.8356 28.5986 22.5612C28.5832 22.5804 28.5485 21.6393 27.8285 21.7833C27.1084 21.9274 25.753 23.5084 23.7198 24.7984C20.964 26.5469 16.3227 26.1846 16.3227 26.1846C16.3227 26.1846 17.6212 25.6608 18.7033 24.4941C19.7853 23.3273 20.9174 21.0757 19.7083 17.9529C19.7083 17.9529 19.3154 23.2803 13.2546 24.0782C8.83787 24.6597 6.55354 19.3536 6.0876 17.0932C5.4798 12.4383 7.89746 9.08556 9.79255 7.65967C16.1692 2.86174 23.9737 6.01154 25.4881 10.8165C26.3353 13.5043 28.4462 13.8264 29.5699 13.1077C32.4232 11.2824 29.6658 5.27475 23.6973 1.93372C16.4311 -2.1337 8.74517 1.12508 6.0876 3.43163C1.38594 6.87413 -3.5038 16.52 3.51596 25.9965Z" fill="#A1ED33"/>
<path fill-rule="evenodd" clip-rule="evenodd" d="M16.0781 14.4246H18.5356C18.5583 14.4246 18.5791 14.4122 18.5898 14.3923L18.6264 14.3246C18.6582 14.266 18.742 14.2652 18.7748 14.3233L19.2312 15.1329C19.265 15.1928 19.3523 15.1896 19.3816 15.1275L20.0149 13.7864C20.0464 13.7197 20.1421 13.7223 20.17 13.7906L20.4069 14.3719C20.4199 14.4037 20.4509 14.4246 20.4853 14.4246H23.3395C22.8197 15.4659 21.6812 16.7196 19.7083 17.9529C17.6939 16.6937 16.5838 15.4815 16.0781 14.4246Z" fill="#A1ED33"/>
<path d="M23.5012 14.028C24.5135 11.1436 20.9603 9.62328 19.7083 11.9478C18.4563 9.62328 14.9011 11.1436 15.9134 14.028H18.2995C18.3321 14.028 18.3618 14.0093 18.3759 13.9798L18.6286 13.4519C18.6583 13.3899 18.7457 13.3872 18.7791 13.4473L19.2313 14.2608C19.2649 14.3211 19.3527 14.3181 19.382 14.2557L20.0971 12.7341C20.1294 12.6653 20.229 12.6707 20.2539 12.7425L20.6782 13.9709C20.69 14.0051 20.7222 14.028 20.7583 14.028H23.5012Z" fill="#A1ED33"/>
</mask>
<g mask="url(#mask1_630_6187)">
<path d="M29.5657 12.079C-10.1886 0.99728 19.4962 21.402 16.9701 21.5021C15.9189 25.6685 4.18592 26.3578 1.99875 15.1446C0.430173 7.1029 8.40592 -1.55236 15.9343 -1.55236C23.4627 -1.55236 29.5657 4.55061 29.5657 12.079Z" fill="url(#paint1_linear_630_6187)"/>
</g>
<mask id="mask2_630_6187" style="mask-type:alpha" maskUnits="userSpaceOnUse" x="0" y="0" width="31" height="32">
<path d="M3.51596 25.9965C10.2256 35.0544 26.2927 34.0367 30.9398 21.7563C31.2726 20.8768 29.179 21.8356 28.5986 22.5612C28.5832 22.5804 28.5485 21.6393 27.8285 21.7833C27.1084 21.9274 25.753 23.5084 23.7198 24.7984C20.964 26.5469 16.3227 26.1846 16.3227 26.1846C16.3227 26.1846 17.6212 25.6608 18.7033 24.4941C19.7853 23.3273 20.9174 21.0757 19.7083 17.9529C19.7083 17.9529 19.3154 23.2803 13.2546 24.0782C8.83787 24.6597 6.55353 19.3536 6.0876 17.0932C5.4798 12.4383 7.89746 9.08556 9.79254 7.65967C16.1692 2.86174 23.9737 6.01154 25.4881 10.8165C26.3353 13.5043 28.4462 13.8265 29.5699 13.1077C32.4232 11.2824 29.6658 5.27475 23.6973 1.93372C16.4311 -2.1337 8.74517 1.12508 6.0876 3.43163C1.38594 6.87413 -3.5038 16.52 3.51596 25.9965Z" fill="#A1ED33"/>
<path fill-rule="evenodd" clip-rule="evenodd" d="M16.0781 14.4246H18.5356C18.5583 14.4246 18.5791 14.4122 18.5898 14.3923L18.6264 14.3246C18.6582 14.266 18.742 14.2652 18.7748 14.3233L19.2312 15.1329C19.265 15.1928 19.3523 15.1896 19.3816 15.1275L20.0149 13.7864C20.0464 13.7197 20.1421 13.7223 20.17 13.7906L20.4069 14.3719C20.4199 14.4037 20.4509 14.4246 20.4853 14.4246H23.3395C22.8197 15.4659 21.6812 16.7196 19.7083 17.9529C17.6939 16.6937 16.5838 15.4815 16.0781 14.4246Z" fill="#A1ED33"/>
<path d="M23.5012 14.028C24.5135 11.1436 20.9603 9.62328 19.7083 11.9478C18.4563 9.62328 14.9011 11.1436 15.9134 14.028H18.2995C18.3321 14.028 18.3618 14.0093 18.3759 13.9798L18.6286 13.4519C18.6583 13.3899 18.7457 13.3872 18.7791 13.4473L19.2313 14.2608C19.2649 14.3211 19.3527 14.3181 19.382 14.2557L20.0971 12.7341C20.1294 12.6653 20.229 12.6707 20.2539 12.7425L20.6782 13.9709C20.69 14.0051 20.7222 14.028 20.7583 14.028H23.5012Z" fill="#A1ED33"/>
</mask>
<g mask="url(#mask2_630_6187)">
<path d="M32.6153 15.21C32.6153 22.53 27.359 10.2349 20.0391 10.2349C12.7191 10.2349 6.10736 22.53 6.10736 15.21C6.10736 7.89 12.0414 1.95599 19.3614 1.95599C26.6813 1.95599 32.6153 7.89 32.6153 15.21Z" fill="url(#paint2_linear_630_6187)"/>
</g>
<path d="M49.7602 12.0753H47.1027C47.0269 11.6395 46.8872 11.2534 46.6835 10.9171C46.4798 10.576 46.2263 10.287 45.9231 10.0502C45.62 9.81333 45.2742 9.63569 44.8857 9.51726C44.502 9.39409 44.0875 9.33251 43.6422 9.33251C42.8511 9.33251 42.15 9.53147 41.5389 9.92939C40.9278 10.3226 40.4494 10.9005 40.1036 11.6632C39.7577 12.4211 39.5848 13.3472 39.5848 14.4415C39.5848 15.5548 39.7577 16.4927 40.1036 17.2554C40.4541 18.0133 40.9326 18.5865 41.5389 18.975C42.15 19.3587 42.8487 19.5505 43.6351 19.5505C44.0709 19.5505 44.4783 19.4937 44.8573 19.38C45.241 19.2616 45.5844 19.0887 45.8876 18.8613C46.1955 18.6339 46.4537 18.3544 46.6621 18.0228C46.8753 17.6912 47.0222 17.3122 47.1027 16.8859L49.7602 16.9001C49.6608 17.5917 49.4452 18.2407 49.1136 18.8471C48.7868 19.4534 48.358 19.9887 47.8275 20.453C47.2969 20.9125 46.6764 21.2725 45.9658 21.533C45.2552 21.7889 44.4665 21.9168 43.5996 21.9168C42.3205 21.9168 41.1789 21.6207 40.1746 21.0285C39.1703 20.4364 38.3792 19.5813 37.8013 18.4634C37.2234 17.3454 36.9344 16.0048 36.9344 14.4415C36.9344 12.8735 37.2257 11.5329 37.8084 10.4197C38.3911 9.30172 39.1845 8.44666 40.1888 7.85452C41.1931 7.26237 42.33 6.9663 43.5996 6.9663C44.4096 6.9663 45.1628 7.07999 45.8592 7.30737C46.5556 7.53476 47.1761 7.86873 47.7209 8.30928C48.2657 8.7451 48.7133 9.2804 49.0639 9.91518C49.4192 10.5452 49.6513 11.2653 49.7602 12.0753ZM54.6012 21.9381C53.9095 21.9381 53.2866 21.8149 52.7324 21.5686C52.1828 21.3175 51.747 20.948 51.4249 20.4601C51.1075 19.9722 50.9488 19.3705 50.9488 18.6552C50.9488 18.0394 51.0625 17.5302 51.2899 17.1275C51.5173 16.7248 51.8276 16.4027 52.2207 16.1611C52.6139 15.9195 53.0569 15.7371 53.5495 15.614C54.0469 15.4861 54.5609 15.3937 55.0915 15.3369C55.731 15.2705 56.2497 15.2113 56.6476 15.1592C57.0455 15.1024 57.3345 15.0171 57.5145 14.9034C57.6993 14.785 57.7916 14.6026 57.7916 14.3563V14.3136C57.7916 13.7783 57.6329 13.3638 57.3156 13.0701C56.9982 12.7764 56.541 12.6296 55.9441 12.6296C55.3141 12.6296 54.8143 12.7669 54.4448 13.0417C54.0801 13.3165 53.8337 13.6409 53.7058 14.0152L51.3041 13.6741C51.4936 13.0109 51.8062 12.4567 52.2421 12.0114C52.6779 11.5613 53.2108 11.225 53.8408 11.0024C54.4709 10.775 55.1673 10.6613 55.9299 10.6613C56.4558 10.6613 56.9792 10.7229 57.5003 10.846C58.0214 10.9692 58.4975 11.1729 58.9286 11.4571C59.3596 11.7366 59.7054 12.118 59.966 12.6011C60.2313 13.0843 60.3639 13.6883 60.3639 14.4131V21.7178H57.8911V20.2185H57.8058C57.6495 20.5217 57.4292 20.8059 57.145 21.0712C56.8655 21.3317 56.5126 21.5425 56.0863 21.7036C55.6647 21.8599 55.1696 21.9381 54.6012 21.9381ZM55.2691 20.0479C55.7855 20.0479 56.2331 19.9461 56.6121 19.7424C56.9911 19.534 57.2824 19.2592 57.4861 18.9181C57.6945 18.5771 57.7987 18.2052 57.7987 17.8025V16.5164C57.7182 16.5827 57.5808 16.6443 57.3866 16.7012C57.1971 16.758 56.984 16.8077 56.7471 16.8504C56.5102 16.893 56.2757 16.9309 56.0436 16.9641C55.8115 16.9972 55.6102 17.0256 55.4396 17.0493C55.0559 17.1014 54.7125 17.1867 54.4093 17.3051C54.1061 17.4236 53.8669 17.5894 53.6916 17.8025C53.5164 18.011 53.4287 18.281 53.4287 18.6126C53.4287 19.0863 53.6016 19.444 53.9474 19.6856C54.2932 19.9272 54.7338 20.0479 55.2691 20.0479ZM67.182 21.931C66.0877 21.931 65.1427 21.7036 64.3468 21.2488C63.5557 20.7893 62.947 20.1403 62.5206 19.3018C62.0943 18.4586 61.8811 17.4662 61.8811 16.3245C61.8811 15.2018 62.0943 14.2165 62.5206 13.3686C62.9517 12.5159 63.5533 11.8527 64.3255 11.379C65.0977 10.9005 66.0048 10.6613 67.047 10.6613C67.7197 10.6613 68.3544 10.7702 68.9513 10.9881C69.5529 11.2013 70.0835 11.5329 70.543 11.9829C71.0073 12.433 71.372 13.0062 71.6373 13.7025C71.9026 14.3942 72.0352 15.2184 72.0352 16.1753V16.9641H63.0891V15.2303H69.5695C69.5648 14.7376 69.4582 14.2994 69.2498 13.9157C69.0413 13.5273 68.75 13.2217 68.3758 12.9991C68.0063 12.7764 67.5752 12.6651 67.0825 12.6651C66.5567 12.6651 66.0948 12.793 65.6969 13.0488C65.299 13.2999 64.9887 13.6315 64.7661 14.0436C64.5481 14.451 64.4368 14.8987 64.4321 15.3866V16.9001C64.4321 17.5349 64.5481 18.0797 64.7803 18.5344C65.0124 18.9845 65.3369 19.3303 65.7537 19.5719C66.1706 19.8087 66.6585 19.9272 67.2175 19.9272C67.5918 19.9272 67.9305 19.875 68.2336 19.7708C68.5368 19.6619 68.7997 19.5032 69.0224 19.2947C69.245 19.0863 69.4132 18.8281 69.5269 18.5202L71.9286 18.7902C71.777 19.425 71.4881 19.9793 71.0617 20.453C70.6401 20.922 70.1001 21.2867 69.4416 21.5473C68.7832 21.8031 68.03 21.931 67.182 21.931ZM76.1833 7.16526V21.7178H73.6111V7.16526H76.1833ZM81.3689 21.9381C80.6772 21.9381 80.0543 21.8149 79.5001 21.5686C78.9506 21.3175 78.5147 20.948 78.1926 20.4601C77.8752 19.9722 77.7165 19.3705 77.7165 18.6552C77.7165 18.0394 77.8302 17.5302 78.0576 17.1275C78.285 16.7248 78.5953 16.4027 78.9885 16.1611C79.3816 15.9195 79.8246 15.7371 80.3172 15.614C80.8146 15.4861 81.3286 15.3937 81.8592 15.3369C82.4987 15.2705 83.0174 15.2113 83.4153 15.1592C83.8132 15.1024 84.1022 15.0171 84.2822 14.9034C84.467 14.785 84.5593 14.6026 84.5593 14.3563V14.3136C84.5593 13.7783 84.4007 13.3638 84.0833 13.0701C83.7659 12.7764 83.3087 12.6296 82.7119 12.6296C82.0818 12.6296 81.582 12.7669 81.2125 13.0417C80.8478 13.3165 80.6015 13.6409 80.4736 14.0152L78.0718 13.6741C78.2613 13.0109 78.574 12.4567 79.0098 12.0114C79.4456 11.5613 79.9785 11.225 80.6086 11.0024C81.2386 10.775 81.935 10.6613 82.6976 10.6613C83.2235 10.6613 83.7469 10.7229 84.268 10.846C84.7891 10.9692 85.2652 11.1729 85.6963 11.4571C86.1273 11.7366 86.4732 12.118 86.7337 12.6011C86.999 13.0843 87.1316 13.6883 87.1316 14.4131V21.7178H84.6588V20.2185H84.5736C84.4172 20.5217 84.197 20.8059 83.9127 21.0712C83.6332 21.3317 83.2803 21.5425 82.854 21.7036C82.4324 21.8599 81.9373 21.9381 81.3689 21.9381ZM82.0368 20.0479C82.5532 20.0479 83.0008 19.9461 83.3798 19.7424C83.7588 19.534 84.0501 19.2592 84.2538 18.9181C84.4622 18.5771 84.5665 18.2052 84.5665 17.8025V16.5164C84.4859 16.5827 84.3485 16.6443 84.1543 16.7012C83.9648 16.758 83.7517 16.8077 83.5148 16.8504C83.2779 16.893 83.0435 16.9309 82.8113 16.9641C82.5792 16.9972 82.3779 17.0256 82.2074 17.0493C81.8236 17.1014 81.4802 17.1867 81.177 17.3051C80.8738 17.4236 80.6346 17.5894 80.4593 17.8025C80.2841 18.011 80.1964 18.281 80.1964 18.6126C80.1964 19.0863 80.3693 19.444 80.7151 19.6856C81.061 19.9272 81.5015 20.0479 82.0368 20.0479ZM91.6901 15.3226V21.7178H89.1178V10.8034H91.5764V12.658H91.7043C91.9554 12.0469 92.3557 11.5613 92.9052 11.2013C93.4594 10.8413 94.1439 10.6613 94.9587 10.6613C95.7119 10.6613 96.368 10.8223 96.927 11.1445C97.4907 11.4666 97.9266 11.9332 98.2345 12.5443C98.5471 13.1554 98.7011 13.8968 98.6963 14.7684V21.7178H96.1241V15.1663C96.1241 14.4368 95.9346 13.866 95.5556 13.4538C95.1814 13.0417 94.6627 12.8356 93.9995 12.8356C93.5494 12.8356 93.1491 12.9351 92.7986 13.1341C92.4528 13.3283 92.1804 13.6102 91.9814 13.9797C91.7872 14.3492 91.6901 14.7968 91.6901 15.3226Z" fill="#193650"/>
<path d="M55.114 31.8087L57.4016 26.7572H58.1161L60.4109 31.8087H59.6532L57.6109 27.1613H57.8996L55.8573 31.8087H55.114ZM56.0883 30.5458L56.2831 29.9685H59.1264L59.3356 30.5458H56.0883ZM61.0201 31.8087V26.7572H61.7417V31.8087H61.0201ZM66.1158 31.852C65.7309 31.852 65.4326 31.7486 65.221 31.5417C65.0093 31.3348 64.9034 31.039 64.9034 30.6541V27.1469H65.5962V30.6252C65.5962 30.8321 65.6467 30.9908 65.7477 31.1015C65.8536 31.2122 66.0027 31.2675 66.1952 31.2675C66.4117 31.2675 66.5921 31.2073 66.7364 31.0871L66.9529 31.585C66.847 31.6764 66.7196 31.7438 66.5704 31.7871C66.4261 31.8304 66.2745 31.852 66.1158 31.852ZM64.254 28.5541V27.984H66.6931V28.5541H64.254ZM69.6884 27.9479C70.0011 27.9479 70.2753 28.0081 70.511 28.1283C70.7516 28.2486 70.9392 28.4314 71.0739 28.6768C71.2086 28.9221 71.276 29.2325 71.276 29.6077V31.8087H70.5832V29.6871C70.5832 29.3166 70.4918 29.0376 70.309 28.85C70.131 28.6624 69.8784 28.5685 69.5512 28.5685C69.3059 28.5685 69.0918 28.6167 68.909 28.7129C68.7262 28.8091 68.5842 28.951 68.4832 29.1386C68.387 29.3263 68.3389 29.5596 68.3389 29.8386V31.8087H67.6461V26.4541H68.3389V29.016L68.2018 28.7417C68.3269 28.4916 68.5193 28.2967 68.7791 28.1572C69.0389 28.0177 69.342 27.9479 69.6884 27.9479ZM74.7879 31.8087V31.0005L74.7518 30.8489V29.4706C74.7518 29.1771 74.6652 28.951 74.4921 28.7923C74.3237 28.6287 74.0687 28.5469 73.7271 28.5469C73.501 28.5469 73.2797 28.5854 73.0632 28.6624C72.8467 28.7345 72.6639 28.8331 72.5148 28.9582L72.2261 28.4386C72.4234 28.2799 72.6591 28.1596 72.9333 28.0778C73.2123 27.9912 73.5034 27.9479 73.8065 27.9479C74.3309 27.9479 74.735 28.0754 75.0189 28.3304C75.3027 28.5854 75.4446 28.9751 75.4446 29.4995V31.8087H74.7879ZM73.5323 31.852C73.2484 31.852 72.9983 31.8039 72.7818 31.7077C72.5701 31.6115 72.4065 31.4792 72.2911 31.3108C72.1756 31.1376 72.1179 30.9427 72.1179 30.7262C72.1179 30.5194 72.166 30.3318 72.2622 30.1634C72.3632 29.995 72.5244 29.8603 72.7457 29.7592C72.9718 29.6582 73.2749 29.6077 73.655 29.6077H74.8673V30.1056H73.6838C73.3374 30.1056 73.1041 30.1634 72.9838 30.2788C72.8636 30.3943 72.8034 30.5338 72.8034 30.6974C72.8034 30.885 72.878 31.0366 73.0271 31.152C73.1763 31.2627 73.3831 31.318 73.6477 31.318C73.9075 31.318 74.1336 31.2603 74.3261 31.1448C74.5233 31.0293 74.6652 30.861 74.7518 30.6397L74.889 31.1159C74.7975 31.342 74.6364 31.5225 74.4055 31.6572C74.1745 31.7871 73.8835 31.852 73.5323 31.852ZM77.8957 31.852C77.5108 31.852 77.2126 31.7486 77.0009 31.5417C76.7892 31.3348 76.6834 31.039 76.6834 30.6541V27.1469H77.3761V30.6252C77.3761 30.8321 77.4266 30.9908 77.5277 31.1015C77.6335 31.2122 77.7827 31.2675 77.9751 31.2675C78.1916 31.2675 78.372 31.2073 78.5163 31.0871L78.7328 31.585C78.627 31.6764 78.4995 31.7438 78.3503 31.7871C78.206 31.8304 78.0545 31.852 77.8957 31.852ZM76.0339 28.5541V27.984H78.473V28.5541H76.0339ZM82.8867 31.852C82.497 31.852 82.1482 31.7678 81.8403 31.5994C81.5372 31.431 81.2991 31.2001 81.1259 30.9067C80.9527 30.6132 80.8661 30.2764 80.8661 29.8964C80.8661 29.5163 80.9527 29.1795 81.1259 28.8861C81.2991 28.5926 81.5372 28.3641 81.8403 28.2005C82.1482 28.0321 82.497 27.9479 82.8867 27.9479C83.2331 27.9479 83.541 28.0177 83.8104 28.1572C84.0846 28.2919 84.2963 28.494 84.4454 28.7634L83.9187 29.1026C83.7936 28.9149 83.6396 28.7778 83.4568 28.6912C83.2788 28.5998 83.0864 28.5541 82.8795 28.5541C82.6293 28.5541 82.4056 28.6094 82.2084 28.7201C82.0111 28.8307 81.8548 28.9871 81.7393 29.1892C81.6238 29.3864 81.5661 29.6221 81.5661 29.8964C81.5661 30.1706 81.6238 30.4087 81.7393 30.6108C81.8548 30.8128 82.0111 30.9692 82.2084 31.0799C82.4056 31.1905 82.6293 31.2458 82.8795 31.2458C83.0864 31.2458 83.2788 31.2025 83.4568 31.1159C83.6396 31.0245 83.7936 30.885 83.9187 30.6974L84.4454 31.0293C84.2963 31.2939 84.0846 31.4984 83.8104 31.6427C83.541 31.7822 83.2331 31.852 82.8867 31.852ZM87.5722 31.8087V31.0005L87.5362 30.8489V29.4706C87.5362 29.1771 87.4496 28.951 87.2764 28.7923C87.108 28.6287 86.853 28.5469 86.5114 28.5469C86.2853 28.5469 86.064 28.5854 85.8475 28.6624C85.631 28.7345 85.4482 28.8331 85.2991 28.9582L85.0104 28.4386C85.2077 28.2799 85.4434 28.1596 85.7176 28.0778C85.9967 27.9912 86.2877 27.9479 86.5908 27.9479C87.1152 27.9479 87.5193 28.0754 87.8032 28.3304C88.087 28.5854 88.2289 28.9751 88.2289 29.4995V31.8087H87.5722ZM86.3166 31.852C86.0327 31.852 85.7826 31.8039 85.5661 31.7077C85.3544 31.6115 85.1908 31.4792 85.0754 31.3108C84.9599 31.1376 84.9022 30.9427 84.9022 30.7262C84.9022 30.5194 84.9503 30.3318 85.0465 30.1634C85.1475 29.995 85.3087 29.8603 85.53 29.7592C85.7561 29.6582 86.0592 29.6077 86.4393 29.6077H87.6516V30.1056H86.4681C86.1217 30.1056 85.8884 30.1634 85.7681 30.2788C85.6479 30.3943 85.5877 30.5338 85.5877 30.6974C85.5877 30.885 85.6623 31.0366 85.8114 31.152C85.9606 31.2627 86.1674 31.318 86.432 31.318C86.6918 31.318 86.9179 31.2603 87.1104 31.1448C87.3076 31.0293 87.4496 30.861 87.5362 30.6397L87.6733 31.1159C87.5819 31.342 87.4207 31.5225 87.1898 31.6572C86.9588 31.7871 86.6678 31.852 86.3166 31.852ZM89.3666 31.8087V27.984H90.0305V29.0232L89.9656 28.7634C90.0714 28.4988 90.2494 28.2967 90.4996 28.1572C90.7498 28.0177 91.0577 27.9479 91.4233 27.9479V28.6191C91.3944 28.6142 91.3656 28.6118 91.3367 28.6118C91.3127 28.6118 91.2886 28.6118 91.2646 28.6118C90.8941 28.6118 90.6006 28.7225 90.3842 28.9438C90.1677 29.1651 90.0594 29.485 90.0594 29.9036V31.8087H89.3666ZM93.8007 31.852C93.3917 31.852 93.0309 31.7678 92.7182 31.5994C92.4103 31.431 92.1698 31.2001 91.9966 30.9067C91.8282 30.6132 91.744 30.2764 91.744 29.8964C91.744 29.5163 91.8258 29.1795 91.9893 28.8861C92.1577 28.5926 92.3863 28.3641 92.6749 28.2005C92.9684 28.0321 93.2979 27.9479 93.6636 27.9479C94.034 27.9479 94.3611 28.0297 94.645 28.1933C94.9288 28.3569 95.1501 28.5878 95.3089 28.8861C95.4725 29.1795 95.5543 29.5235 95.5543 29.918C95.5543 29.9469 95.5518 29.9806 95.547 30.019C95.547 30.0575 95.5446 30.0936 95.5398 30.1273H92.2852V29.6294H95.179L94.8976 29.8025C94.9024 29.5572 94.8519 29.3383 94.746 29.1459C94.6402 28.9534 94.4934 28.8043 94.3058 28.6984C94.123 28.5878 93.9089 28.5325 93.6636 28.5325C93.423 28.5325 93.2089 28.5878 93.0213 28.6984C92.8337 28.8043 92.6869 28.9558 92.5811 29.1531C92.4753 29.3455 92.4223 29.5668 92.4223 29.817V29.9324C92.4223 30.1874 92.4801 30.4159 92.5955 30.618C92.7158 30.8153 92.8818 30.9692 93.0935 31.0799C93.3051 31.1905 93.5481 31.2458 93.8223 31.2458C94.0484 31.2458 94.2529 31.2073 94.4357 31.1304C94.6233 31.0534 94.7869 30.9379 94.9264 30.784L95.3089 31.2314C95.1357 31.4335 94.9192 31.5874 94.6594 31.6932C94.4044 31.7991 94.1182 31.852 93.8007 31.852ZM97.4688 31.852C97.1513 31.852 96.8482 31.8087 96.5595 31.7221C96.2757 31.6355 96.052 31.5297 95.8884 31.4046L96.1771 30.8561C96.3406 30.9668 96.5427 31.0606 96.7832 31.1376C97.0238 31.2146 97.2691 31.253 97.5193 31.253C97.8416 31.253 98.0726 31.2073 98.2121 31.1159C98.3564 31.0245 98.4286 30.897 98.4286 30.7335C98.4286 30.6132 98.3853 30.5194 98.2987 30.452C98.2121 30.3847 98.0966 30.3342 97.9523 30.3005C97.8128 30.2668 97.6564 30.2379 97.4832 30.2139C97.31 30.185 97.1368 30.1513 96.9637 30.1129C96.7905 30.0696 96.6317 30.0118 96.4874 29.9397C96.343 29.8627 96.2276 29.7592 96.141 29.6294C96.0544 29.4946 96.0111 29.3166 96.0111 29.0953C96.0111 28.8644 96.076 28.6624 96.2059 28.4892C96.3358 28.316 96.5186 28.1837 96.7544 28.0923C96.9949 27.996 97.2788 27.9479 97.6059 27.9479C97.8561 27.9479 98.1087 27.9792 98.3636 28.0417C98.6234 28.0995 98.8351 28.1837 98.9987 28.2943L98.7028 28.8428C98.5296 28.7273 98.3492 28.6479 98.1616 28.6046C97.9739 28.5613 97.7863 28.5397 97.5987 28.5397C97.2956 28.5397 97.0695 28.5902 96.9204 28.6912C96.7712 28.7874 96.6966 28.9125 96.6966 29.0665C96.6966 29.1964 96.7399 29.2974 96.8265 29.3696C96.9179 29.4369 97.0334 29.4898 97.1729 29.5283C97.3173 29.5668 97.476 29.6005 97.6492 29.6294C97.8224 29.6534 97.9956 29.6871 98.1688 29.7304C98.342 29.7689 98.4983 29.8242 98.6379 29.8964C98.7822 29.9685 98.8976 30.0696 98.9842 30.1995C99.0757 30.3293 99.1214 30.5025 99.1214 30.719C99.1214 30.95 99.054 31.1496 98.9193 31.318C98.7846 31.4864 98.5946 31.6187 98.3492 31.7149C98.1038 31.8063 97.8104 31.852 97.4688 31.852Z" fill="#193650"/>
<defs>
<linearGradient id="paint0_linear_630_6187" x1="4.77217" y1="26.5426" x2="28.6964" y2="23.231" gradientUnits="userSpaceOnUse">
<stop stop-color="#71B60E"/>
<stop offset="1" stop-color="#A1ED33"/>
</linearGradient>
<linearGradient id="paint1_linear_630_6187" x1="8.53717" y1="-1.55571" x2="14.5236" y2="14.014" gradientUnits="userSpaceOnUse">
<stop stop-color="#60F3E3"/>
<stop offset="0.998389" stop-color="#1D5751"/>
</linearGradient>
<linearGradient id="paint2_linear_630_6187" x1="29.4193" y1="10.2388" x2="12.9601" y2="13.3277" gradientUnits="userSpaceOnUse">
<stop stop-color="#22D9C5"/>
<stop offset="0.998389" stop-color="#1E615B"/>
</linearGradient>
</defs>
</svg>
