<svg width="693" height="578" viewBox="0 0 693 578" fill="none" xmlns="http://www.w3.org/2000/svg">
<path d="M56.3902 0V127.885M56.3902 578V514.561M120.836 0V127.885M120.836 578V514.561M185.282 0V127.885M185.282 578V514.561M249.728 0V63.439M249.728 578V450.115M314.174 0V63.439M314.174 578V385.669M378.62 0V127.885M378.62 578V385.669M443.066 0V192.331M443.066 578V450.115M507.512 0V192.331M507.512 578V514.561M571.958 0V63.439M571.958 578V514.561M636.404 0V63.439M636.404 578V127.885M0 514.561H56.3902M692.794 514.561H571.958M0 450.115H56.3902M692.794 450.115H571.958M0 385.669H56.3902M692.794 385.669H571.958M0 321.223H56.3902M692.794 321.223H507.512M0 256.777H120.836M692.794 256.777H507.512M0 192.331H56.3902M692.794 192.331H507.512M0 127.885H56.3902M692.794 127.885H636.404M0 63.439H249.728M692.794 63.439H636.404M249.728 321.223V385.669M249.728 321.223H314.174M249.728 321.223V256.777M249.728 321.223H185.282M249.728 385.669H314.174M249.728 385.669H185.282M249.728 385.669V450.115M314.174 385.669V321.223M314.174 385.669H378.62M314.174 321.223V192.331M314.174 321.223H378.62M443.066 385.669V450.115M443.066 385.669H507.512M443.066 385.669H378.62M443.066 385.669V321.223M443.066 450.115H507.512M443.066 450.115H249.728M507.512 450.115V385.669M507.512 450.115V514.561M507.512 450.115H571.958M507.512 385.669H571.958M507.512 385.669V321.223M443.066 256.777H507.512M443.066 256.777V192.331M443.066 256.777H249.728M443.066 256.777V321.223M507.512 256.777V192.331M507.512 256.777V321.223M507.512 192.331H443.066M443.066 192.331H378.62M185.282 127.885V192.331M185.282 127.885H249.728M185.282 127.885H120.836M185.282 192.331H249.728M185.282 192.331H120.836M185.282 192.331V256.777M249.728 192.331V127.885M249.728 192.331V256.777M249.728 192.331H314.174M249.728 127.885V63.439M249.728 127.885H314.174M56.3902 385.669V450.115M56.3902 385.669H120.836M56.3902 385.669V321.223M56.3902 450.115H120.836M56.3902 450.115V514.561M120.836 450.115V385.669M120.836 450.115V514.561M120.836 450.115H185.282M120.836 385.669V321.223M120.836 385.669H185.282M571.958 63.439V127.885M571.958 63.439H636.404M571.958 63.439H314.174M571.958 127.885H636.404M571.958 127.885H378.62M571.958 127.885V385.669M636.404 127.885V63.439M120.836 321.223H56.3902M120.836 321.223H185.282M120.836 321.223V256.777M56.3902 321.223V192.331M56.3902 192.331H120.836M56.3902 192.331V127.885M120.836 192.331V127.885M120.836 192.331V256.777M120.836 127.885H56.3902M314.174 127.885V63.439M314.174 127.885H378.62M314.174 127.885V192.331M314.174 63.439H249.728M56.3902 514.561H120.836M120.836 514.561H185.282M185.282 256.777H249.728M185.282 256.777V321.223M185.282 256.777H120.836M185.282 450.115V514.561M185.282 450.115V385.669M185.282 450.115H249.728M185.282 514.561H507.512M378.62 192.331V127.885M378.62 192.331H314.174M378.62 192.331V321.223M443.066 321.223H378.62M443.066 321.223H507.512M378.62 321.223V385.669M507.512 514.561H571.958M571.958 514.561V450.115M571.958 450.115V385.669M185.282 385.669V321.223" stroke="url(#paint0_radial_630_6227)" stroke-width="1.00697"/>
<defs>
<radialGradient id="paint0_radial_630_6227" cx="0" cy="0" r="1" gradientUnits="userSpaceOnUse" gradientTransform="translate(346.397 293.165) rotate(90) scale(317.589 380.664)">
<stop stop-color="#EFD5B2"/>
<stop offset="1" stop-color="white" stop-opacity="0"/>
</radialGradient>
</defs>
</svg>
